PathFileType	4	(X/Y/Z)	C:/Users/beibeiliu/ov580/test_trc/User3\sequence.12_training_dense_right.trc
DataRate	CameraRate	NumFrames	NumMarkers	Units	OrigDataRate	OrigDataStartFrame	OrigNumFrames
120	120	18	19	mm	120	1	250
Frame#	Time	ThumbCMC			ThumbMCP			ThumbIP			ThumbTip			IndexMCP			IndexPIP			IndexTip			MiddleMCP			MiddlePIP			MiddleTip			RingMCP			RingPIP			RingTip			PinkyMCP			PinkyPIP			PinkyTip			BackHand1			BackHand2			BackHand3	
		X0	Y0	Z0	X1	Y1	Z1	X2	Y2	Z2	X3	Y3	Z3	X4	Y4	Z4	X5	Y5	Z5	X6	Y6	Z6	X7	Y7	Z7	X8	Y8	Z8	X9	Y9	Z9	X10	Y10	Z10	X11	Y11	Z11	X12	Y12	Z12	X13	Y13	Z13	X14	Y14	Z14	X15	Y15	Z15	X16	Y16	Z16	X17	Y17	Z17	X18	Y18	Z18	
0	0	158.044	-15.3174	23.7731	135.052	-22.5934	-2.62825	127.495	-30.2682	-32.118	130.455	-39.5478	-54.5343	165.92	-3.5966	-54.3022	156.419	-23.8694	-79.7923	145.772	-46.4736	-87.7131	187.944	-9.79497	-61.9065	174.821	-29.4543	-84.7668	166.146	-65.6829	-88.0548	203.302	-19.0853	-56.3233	196.123	-39.6434	-77.8942	186.967	-70.9661	-78.6248	219.609	-28.9917	-44.7174	215.225	-46.6375	-64.6997	205.556	-70.208	-69.5033	214.059	-1.02465	-3.59427	217.282	-0.488645	28.1808	184.402	7.64716	15.6696	
1	0.00833333	155.387	-14.9393	18.793	138.677	-23.6428	-1.43282	129.225	-30.4695	-33.5003	126.75	-40.9675	-53.9007	164.944	-4.55628	-54.2071	153.756	-22.4368	-80.8102	148.659	-50.9307	-88.0974	183.453	-8.76047	-60.6595	172.144	-32.6431	-86.5047	164.633	-67.3547	-88.5857	199.781	-18.8007	-58.4692	200.495	-38.9561	-76.8924	185.569	-69.9872	-78.7999	218.494	-28.9916	-44.0205	214.391	-47.3239	-65.5486	199.944	-69.7184	-69.0157	212.71	-1.48817	-4.00798	216.467	-1.47741	27.0896	182.893	8.70308	12.2455	
2	0.0166667	154.08	-15.7198	24.1166	138.963	-23.7425	-3.77696	127.271	-30.5741	-32.7526	129.944	-39.7993	-54.0865	164.915	-5.1089	-54.7288	153.354	-19.6512	-78.7952	149.53	-48.0067	-88.4569	181.986	-11.0583	-65.4313	171.674	-32.5114	-86.5027	164.637	-69.0846	-88.6621	202.381	-19.6868	-57.5639	196.351	-37.5963	-76.8393	186.803	-69.2711	-78.9068	218.258	-28.1614	-45.7769	215.668	-45.9783	-63.7179	203.492	-67.0553	-70.1357	213.099	-1.55276	-5.3579	219.038	-1.14604	23.9487	184.584	8.23814	13.3937	
3	0.025	152.878	-15.4665	21.2502	135.933	-24.0534	-1.33936	127.973	-30.7173	-33.8737	128.104	-41.4021	-55.6006	162.9	-4.2644	-53.073	152.9	-23.2606	-81.0954	150.464	-49.378	-89.7401	186.579	-11.4927	-63.9887	175.788	-34.3372	-87.6197	167.906	-67.3109	-90.3327	200.95	-18.9136	-59.1191	196.84	-40.6683	-79.71	186.108	-68.6129	-81.1	218.786	-28.1657	-44.1733	216.466	-43.4378	-62.8548	203.358	-70.055	-72.0908	210.678	0.377011	-4.98309	217.115	-3.31517	26.8279	180.354	7.87134	10.105	
4	0.0333333	151.882	-14.3632	20.0149	137.004	-23.8558	-2.09038	126.761	-30.8182	-32.1006	128.379	-41.7754	-55.3597	164.752	-5.12509	-56.8162	153.67	-18.8362	-80.5559	151.276	-46.3543	-91.6203	183.595	-8.93133	-60.441	174.931	-32.4834	-87.9607	166.153	-62.4649	-95.26	202.103	-18.4743	-53.8238	195.481	-38.444	-80.5063	187.561	-67.4264	-86.8733	221.549	-29.0853	-41.262	216.511	-44.8972	-66.4054	205.935	-68.4964	-73.9098	211.537	-1.42598	-1.7016	220.346	-2.41169	26.7271	185.945	6.01382	13.4007	
5	0.0416667	152.546	-15.356	18.7042	139.061	-24.6152	-2.46046	127.626	-32.259	-27.2736	125.912	-41.634	-51.0567	162.442	-5.2554	-55.2805	158.616	-20.6002	-82.4778	146.198	-45.2501	-96.0576	186.822	-9.92922	-61.0493	179.906	-27.9381	-88.2474	168.03	-57.018	-100.438	201.634	-18.6327	-57.228	201.659	-34.7088	-80.2926	190.451	-59.4198	-90.8825	223.323	-30.2	-44.4825	219.442	-41.2523	-63.9021	211.508	-67.8126	-79.3604	215.334	-3.8598	-4.9313	217.237	-2.98631	23.8267	185.383	5.73818	9.04127	
6	0.05	154.735	-17.3923	19.6675	135.121	-24.6548	-0.7857	122.574	-32.2798	-29.6844	119.829	-42.9742	-50.3663	163.91	-7.04564	-55.6034	154.319	-19.6259	-83.2856	153.197	-42.7196	-98.8643	184.578	-9.82995	-62.1419	179.087	-26.3008	-88.9208	170.746	-55.2586	-106.238	206.363	-19.8736	-57.4739	204.28	-34.033	-80.7066	197.028	-57.2351	-95.692	222.012	-30.0146	-40.9876	224.128	-45.0063	-64.8892	216.153	-66.3698	-81.3128	211.958	-2.57872	-2.12207	214.747	-2.8218	25.9458	182.625	4.6141	9.45346	
7	0.0583333	153.782	-18.6563	24.1916	135.678	-25.6001	-0.64544	123.565	-33.2483	-27.8108	119.636	-42.847	-51.2123	162.952	-7.7259	-56.0313	158.631	-22.3277	-84.4716	152.434	-43.0965	-102.631	188.068	-12.47	-63.5058	181.986	-26.6692	-90.4728	176.939	-55.6701	-112.481	208.167	-21.7459	-57.3852	207.435	-34.0553	-81.5355	198.348	-52.4262	-98.8554	224.112	-31.0957	-38.8401	225.655	-41.9426	-61.2658	224.052	-62.68	-81.8494	211.658	-2.81426	-6.21567	215.866	-2.96691	27.9121	180.889	4.49222	12.4093	
8	0.0666667	156.462	-19.9666	18.2873	135.661	-27.3222	-0.729843	125.431	-35.2167	-26.1584	119.427	-45.7218	-48.7726	165.565	-11.3561	-57.9088	158.512	-21.8992	-84.7042	155.729	-40.292	-101.777	190.448	-13.6252	-62.9701	185.15	-29.0044	-93.0686	178.868	-49.2421	-111.699	206.882	-20.7847	-53.6811	206.971	-31.8386	-79.3889	202.851	-53.8034	-102.72	226.973	-32.5873	-40.4644	226.882	-43.7924	-63.0049	230.153	-62.2726	-79.0664	216.267	-5.13082	-5.42715	218.905	-4.76561	23.9863	184.386	1.42417	11.8604	
9	0.075	154.572	-20.0619	22.6837	135.842	-29.5207	-1.81811	124.788	-37.2893	-26.7814	120.559	-47.7685	-50.8755	168.446	-13.7032	-58.4265	158.06	-23.1489	-81.8853	155.508	-45.6996	-103.2	188.309	-15.5987	-65.9577	186.349	-31.2626	-93.1194	180.092	-51.1448	-113.56	208.953	-23.247	-53.9811	207.48	-33.6315	-79.2648	204.029	-53.6995	-101.584	230.283	-34.9251	-40.1902	230.364	-45.1184	-62.1259	229.176	-60.526	-81.2861	211.384	-7.95216	-3.12759	218.75	-6.26598	22.4903	186.783	1.54004	11.578	
10	0.0833333	157.644	-21.1117	18.9504	134.805	-29.6592	-4.26204	123.04	-40.1606	-29.0041	122.805	-51.1974	-51.8061	167.01	-14.4558	-55.2636	158.51	-27.9476	-85.5718	159.542	-46.4941	-102.28	191.443	-19.0088	-65.2104	190.235	-31.6213	-90.4609	183.311	-55.2804	-113.01	210.92	-26.0882	-57.793	209.801	-36.3359	-80.2589	205.79	-56.4495	-101.104	231.176	-37.5495	-40.2333	230.667	-47.117	-61.7102	229.887	-65.1974	-83.0952	212.408	-8.57145	-1.99708	218.289	-4.82459	25.8901	185.78	-1.63198	11.3203	
11	0.0916667	156.821	-22.9721	22.6591	141.079	-31.7275	-2.66543	126.231	-41.659	-32.5975	122.501	-53.0869	-54.1681	166.376	-16.7902	-58.1687	162.224	-29.7947	-85.6862	158.135	-52.1301	-102.871	190.046	-19.3325	-62.475	189.454	-34.2527	-92.0948	181.184	-57.2424	-113.875	211.161	-27.2203	-57.3171	211.6	-39.3349	-79.885	204.982	-61.1973	-101.383	227.441	-37.4771	-43.8324	232.283	-50.7414	-64.3499	232.071	-68.878	-80.4363	215.339	-10.0008	-7.61224	218.164	-6.66057	23.9079	182.501	-1.9012	6.69359	
12	0.1	154.927	-23.0281	20.7266	140.653	-32.9727	-3.94105	127.568	-42.7276	-27.9521	123.056	-52.9297	-50.4696	166.605	-17.2593	-61.2486	163.31	-31.565	-85.9003	156.237	-50.4124	-100.622	190.589	-20.7483	-67.9146	191.782	-38.2297	-93.7	185.05	-60.7473	-112.958	210.662	-28.6801	-58.7655	213.368	-43.2899	-82.7515	204.838	-62.2929	-101.488	231.125	-38.6713	-43.3058	231.698	-51.0168	-63.1209	229.752	-70.0086	-79.9122	214.538	-8.37151	-6.75084	218.133	-8.14241	22.7936	183.92	-0.305146	9.56576	
13	0.108333	159.519	-23.9686	17.057	140.182	-33.7351	-5.23604	129.535	-41.9937	-30.3383	122.85	-53.1861	-49.5204	171.108	-19.1046	-58.7146	165.183	-32.2436	-86.265	157.826	-55.9287	-104.305	196.716	-21.6457	-63.9785	192.874	-36.1503	-91.2999	186.479	-63.7267	-114.882	214.34	-30.5386	-59.868	209.096	-41.4631	-81.1112	208.704	-61.7091	-99.0745	233.266	-39.986	-39.7425	234	-54.4529	-63.638	230.446	-69.1122	-77.9446	214.929	-10.07	-3.9234	219.139	-8.30913	21.343	184.118	-0.575826	9.03965	
14	0.116667	157.226	-23.7429	16.9761	136.497	-33.2649	-3.24433	127.833	-42.1208	-30.1848	122.07	-52.9055	-54.9088	168.159	-18.2021	-62.6357	164.584	-33.7095	-87.8817	156.944	-52.9557	-103.238	191.537	-21.7607	-65.8869	192.791	-35.8575	-90.7893	185.06	-62.3784	-114.48	214.468	-30.0654	-58.4762	211.506	-43.1598	-84.4322	206.176	-64.2391	-102.653	231.232	-39.5031	-40.3103	237.368	-51.8466	-61.1682	232.005	-71.5125	-80.9803	217.743	-10.9333	-5.75987	217.098	-6.6853	22.9513	184.317	-2.81812	5.15374	
15	0.125	155.303	-21.615	16.7517	138.417	-32.1893	-3.99885	125.764	-40.8753	-29.2856	121.493	-51.2704	-50.2526	167.238	-17.3184	-61.5884	161.41	-32.18	-87.952	155.778	-50.8002	-104.684	191.859	-22.3206	-68.0407	187.037	-36.8559	-94.2158	182.299	-58.674	-114.87	208.806	-28.2101	-59.6113	214.003	-39.7877	-81.1094	208.368	-61.1648	-103.085	231.168	-38.5568	-41.36	235.235	-50.9447	-61.7646	231.963	-68.3857	-80.9017	218.772	-9.2115	-5.19133	220.857	-6.01478	20.3526	184.551	-1.98322	8.43833	
16	0.133333	158.201	-22.2375	18.4572	136.274	-30.3237	-4.04354	127.356	-38.9311	-32.0252	119.869	-49.5155	-51.8324	166.882	-16.9952	-61.7067	160.155	-28.6387	-86.5689	159.783	-48.4717	-107.52	190.37	-19.8119	-64.5661	187.04	-33.6249	-91.3745	186.962	-55.2259	-114.897	208.542	-26.9917	-54.6482	209.46	-39.1264	-83.0469	205.74	-56.6825	-105.327	230.459	-37.4651	-38.6378	231.49	-50.2795	-64.0197	230.519	-66.0719	-82.8192	215.891	-8.12625	-4.40996	219.947	-4.93407	24.0853	184.84	-1.9324	9.72924	
17	0.141667	154.29	-20.0594	18.1198	138.484	-29.7997	-5.69522	122.518	-37.2389	-27.2214	116.359	-45.9437	-47.1179	167.935	-16.6776	-61.0821	162.574	-26.2587	-86.2829	159.399	-40.7588	-106.56	191.325	-20.7487	-66.6736	188.072	-32.676	-93.877	182.2	-48.6623	-118.859	205.811	-25.9022	-57.6133	209.924	-37.5897	-84.1573	204.359	-49.3717	-104.371	226.77	-36.0311	-42.5558	231.324	-47.7778	-64.0101	236.413	-59.8255	-82.0428	215.485	-7.45409	-4.90615	218.156	-3.49243	25.6898	180.328	-0.554944	9.68486	
